<svg xmlns="http://www.w3.org/2000/svg" viewBox="0 0 89.5 89.5"><defs><style>.cls-1{fill:#1d1d1b;}.cls-2{fill:#fff;}.cls-3{fill:#e25124;}</style></defs><g id="Layer_2" data-name="Layer 2"><g id="Layer_1-2" data-name="Layer 1"><circle class="cls-1" cx="44.75" cy="44.75" r="44.75"/><path class="cls-2" d="M67.38,34.38H22.26a23.81,23.81,0,0,1,45.12,0Z"/><path class="cls-2" d="M78.67,34.38H76.83a34.1,34.1,0,0,0-64.27,0H10.64a35.9,35.9,0,0,1,68,0Z"/><path class="cls-1" d="M67.38,34.38H22.26a23.81,23.81,0,0,1,45.12,0Z"/><path class="cls-3" d="M67.38,34.38H22.26a23.81,23.81,0,0,1,45.12,0Z"/><path class="cls-2" d="M22.26,55.12H67.38a23.81,23.81,0,0,1-45.12,0Z"/><path class="cls-2" d="M78.67,55.12a35.9,35.9,0,0,1-68,0h1.92a34.1,34.1,0,0,0,64.27,0Z"/><path class="cls-1" d="M67.38,55.12a23.81,23.81,0,0,1-45.12,0Z"/><path class="cls-3" d="M67.38,55.12a23.81,23.81,0,0,1-45.12,0Z"/><path class="cls-3" d="M16.71,48a2.24,2.24,0,0,1-3-.18A2.69,2.69,0,0,1,13.1,46V42.67a2.67,2.67,0,0,1,.61-1.86,2.23,2.23,0,0,1,2.59-.45,2.16,2.16,0,0,1,.76.66,2.84,2.84,0,0,1,.48,1h2A5.21,5.21,0,0,0,18.77,40a3.82,3.82,0,0,0-1.46-1.34,4.14,4.14,0,0,0-2-.47,4.62,4.62,0,0,0-2.29.55,3.61,3.61,0,0,0-1.47,1.55,5,5,0,0,0-.53,2.4V46a5,5,0,0,0,.53,2.39,3.69,3.69,0,0,0,1.47,1.56,4.62,4.62,0,0,0,2.29.54,4.07,4.07,0,0,0,2-.47,4,4,0,0,0,1.46-1.33,5.48,5.48,0,0,0,.82-2.07h-2A2.47,2.47,0,0,1,16.71,48Z"/><path class="cls-3" d="M32.56,38.3,30.72,47,28.33,38.3H26.84L24.46,47,22.61,38.3h-2l2.86,12.05h1.93l2.28-8.42,2.18,8.42h1.93L34.61,38.3Z"/><path class="cls-3" d="M36.26,38.3V50.35h2V38.3Zm8,6.82a2.72,2.72,0,0,0-1.8-.95,2.54,2.54,0,0,0,2.28-2.61,3.2,3.2,0,0,0-.91-2.4,3.84,3.84,0,0,0-2.7-.86H37.26v1.87H40.9a2.07,2.07,0,0,1,1.35.38,1.41,1.41,0,0,1,.45,1.14,1.49,1.49,0,0,1-.43,1.15,1.78,1.78,0,0,1-1.25.39H37.26v1.86H41a1.89,1.89,0,0,1,1.39.45,1.74,1.74,0,0,1,.45,1.26v0A1.6,1.6,0,0,1,42.37,48a2.32,2.32,0,0,1-1.56.44H37.26v1.88h4a3.78,3.78,0,0,0,2.66-.89,3.09,3.09,0,0,0,1-2.4v0A3,3,0,0,0,44.22,45.12Z"/><path class="cls-2" d="M52.37,48a2.08,2.08,0,0,1-1.38.49,2,2,0,0,1-1.62-.67A2.69,2.69,0,0,1,48.76,46V42.67a2.67,2.67,0,0,1,.61-1.86A2,2,0,0,1,51,40.13a2.1,2.1,0,0,1,1,.23,2.16,2.16,0,0,1,.76.66,3,3,0,0,1,.48,1h2A5.36,5.36,0,0,0,54.43,40,3.9,3.9,0,0,0,53,38.64a4.17,4.17,0,0,0-2-.47,4.57,4.57,0,0,0-2.27.55,3.61,3.61,0,0,0-1.47,1.55,5,5,0,0,0-.53,2.4V46a5,5,0,0,0,.53,2.39,3.69,3.69,0,0,0,1.47,1.56,4.57,4.57,0,0,0,2.27.54A4.1,4.1,0,0,0,53,50a4,4,0,0,0,1.46-1.33,5.65,5.65,0,0,0,.82-2.07h-2A2.59,2.59,0,0,1,52.37,48Z"/><path class="cls-2" d="M59.89,48.47a.57.57,0,0,1-.44-.17.68.68,0,0,1-.16-.48V38.3h-2v9.79a2.42,2.42,0,0,0,.55,1.69,2,2,0,0,0,1.55.59h1.07v-1.9Z"/><path class="cls-2" d="M67.2,47a1.58,1.58,0,0,1-.4,1.14,1.55,1.55,0,0,1-1.13.39,1.57,1.57,0,0,1-1.15-.41,1.65,1.65,0,0,1-.4-1.19V41.75h-2V47a3.82,3.82,0,0,0,.76,2.55,2.69,2.69,0,0,0,2.17.91A2.16,2.16,0,0,0,66.53,50a3.26,3.26,0,0,0,.67-.83c0-.09.09-.18.12-.27Zm0-5.29v8.6h2v-8.6Z"/><path class="cls-2" d="M71.58,38.3V50.35h2V38.3Zm6.24,4.27a2.59,2.59,0,0,0-2.14-1,2.36,2.36,0,0,0-1.33.42,2.52,2.52,0,0,0-.79.86,2.28,2.28,0,0,0-.17.3L73.56,45a1.86,1.86,0,0,1,.17-.83,1.28,1.28,0,0,1,.5-.53,1.66,1.66,0,0,1,.8-.18,1.42,1.42,0,0,1,1.15.48,2,2,0,0,1,.41,1.34v1.62a2,2,0,0,1-.41,1.32,1.44,1.44,0,0,1-1.15.46,1.66,1.66,0,0,1-.8-.18,1.2,1.2,0,0,1-.5-.52,2,2,0,0,1-.17-.84L73.44,49a1.23,1.23,0,0,0,.12.26,2.1,2.1,0,0,0,.72.84,2.44,2.44,0,0,0,1.36.38,2.58,2.58,0,0,0,2.16-.95,4.06,4.06,0,0,0,.77-2.65V45.25A4.23,4.23,0,0,0,77.82,42.57Z"/></g></g></svg>