<svg xmlns="http://www.w3.org/2000/svg" viewBox="0 0 67.69 69.24"><defs><style>.cls-1{fill:#fff;}.cls-2{fill:#1d1d1b;}.cls-3{fill:#e25124;}</style></defs><g id="Layer_2" data-name="Layer 2"><g id="Layer_1-2" data-name="Layer 1"><path class="cls-1" d="M56.45,24.3H11.56a23.69,23.69,0,0,1,44.89,0Z"/><path class="cls-1" d="M67.69,24.3H65.86a33.93,33.93,0,0,0-63.95,0H0a35.72,35.72,0,0,1,67.69,0Z"/><path class="cls-2" d="M56.45,24.3H11.56a23.69,23.69,0,0,1,44.89,0Z"/><path class="cls-3" d="M56.45,24.3H11.56a23.69,23.69,0,0,1,44.89,0Z"/><path class="cls-1" d="M11.56,44.94H56.45a23.69,23.69,0,0,1-44.89,0Z"/><path class="cls-1" d="M67.69,44.94A35.72,35.72,0,0,1,0,44.94H1.91a33.93,33.93,0,0,0,64,0Z"/><path class="cls-2" d="M56.45,44.94a23.69,23.69,0,0,1-44.89,0Z"/><path class="cls-3" d="M56.45,44.94a23.69,23.69,0,0,1-44.89,0Z"/><path class="cls-3" d="M6,37.87a2.07,2.07,0,0,1-1.36.49,2.06,2.06,0,0,1-1.63-.67,2.69,2.69,0,0,1-.6-1.85V32.55a2.69,2.69,0,0,1,.6-1.85A2.07,2.07,0,0,1,4.68,30a2.08,2.08,0,0,1,1,.23,2.16,2.16,0,0,1,.76.66,2.85,2.85,0,0,1,.47,1h2a5.21,5.21,0,0,0-.8-2.05,3.92,3.92,0,0,0-1.45-1.33,4.14,4.14,0,0,0-2-.47,4.54,4.54,0,0,0-2.27.55A3.64,3.64,0,0,0,.94,30.16a5.11,5.11,0,0,0-.52,2.39v3.29a5.07,5.07,0,0,0,.52,2.38,3.61,3.61,0,0,0,1.47,1.55,4.54,4.54,0,0,0,2.27.54,4.07,4.07,0,0,0,2-.47,4,4,0,0,0,1.45-1.32,5.42,5.42,0,0,0,.81-2.06h-2A2.43,2.43,0,0,1,6,37.87Z"/><path class="cls-3" d="M21.81,28.2,20,36.9,17.6,28.2H16.12l-2.37,8.7-1.84-8.7h-2l2.84,12h1.92l2.27-8.38,2.17,8.38H21l2.85-12Z"/><path class="cls-3" d="M25.49,28.2v12h2v-12ZM33.41,35a2.7,2.7,0,0,0-1.79-1,2.65,2.65,0,0,0,1.7-.91,2.61,2.61,0,0,0,.57-1.68A3.16,3.16,0,0,0,33,29.06a3.78,3.78,0,0,0-2.68-.86H26.48v1.86h3.63a2.06,2.06,0,0,1,1.34.38,1.4,1.4,0,0,1,.45,1.13,1.49,1.49,0,0,1-.43,1.15,1.77,1.77,0,0,1-1.24.39H26.48V35h3.75a1.88,1.88,0,0,1,1.38.45,1.69,1.69,0,0,1,.45,1.25v0a1.57,1.57,0,0,1-.49,1.2,2.31,2.31,0,0,1-1.55.44H26.48v1.87h4a3.8,3.8,0,0,0,2.65-.88,3.08,3.08,0,0,0,1-2.39v0A3,3,0,0,0,33.41,35Z"/><path class="cls-1" d="M41.52,37.87a2.08,2.08,0,0,1-1.37.49,2,2,0,0,1-1.62-.67,2.69,2.69,0,0,1-.6-1.85V32.55a2.69,2.69,0,0,1,.6-1.85A2,2,0,0,1,40.15,30a2.09,2.09,0,0,1,1,.23,2.16,2.16,0,0,1,.76.66,2.85,2.85,0,0,1,.47,1h2a5.21,5.21,0,0,0-.8-2.05,4,4,0,0,0-1.45-1.33,4.15,4.15,0,0,0-2-.47,4.5,4.5,0,0,0-2.26.55,3.64,3.64,0,0,0-1.47,1.54,5.11,5.11,0,0,0-.52,2.39v3.29a5.07,5.07,0,0,0,.52,2.38,3.61,3.61,0,0,0,1.47,1.55,4.5,4.5,0,0,0,2.26.54,4.09,4.09,0,0,0,2-.47,4,4,0,0,0,1.45-1.32,5.42,5.42,0,0,0,.81-2.06h-2A2.49,2.49,0,0,1,41.52,37.87Z"/><path class="cls-1" d="M49,38.32a.57.57,0,0,1-.44-.17.68.68,0,0,1-.16-.48V28.2h-2v9.74A2.38,2.38,0,0,0,47,39.62a2,2,0,0,0,1.54.59h1.07V38.32Z"/><path class="cls-1" d="M56.27,36.9A1.59,1.59,0,0,1,53.61,38a1.62,1.62,0,0,1-.4-1.18v-5.2h-2v5.24A3.81,3.81,0,0,0,52,39.41a2.68,2.68,0,0,0,2.16.9,2.15,2.15,0,0,0,1.45-.48,3,3,0,0,0,.66-.82c0-.09.09-.18.12-.27Zm0-5.27v8.56h2V31.63Z"/><path class="cls-1" d="M60.63,28.2v12h2v-12Zm6.21,4.25a2.57,2.57,0,0,0-2.13-1,2.31,2.31,0,0,0-1.32.41,2.52,2.52,0,0,0-.79.86,2.28,2.28,0,0,0-.17.3l.17,1.77a1.86,1.86,0,0,1,.17-.83,1.2,1.2,0,0,1,.5-.52,1.66,1.66,0,0,1,.8-.18,1.43,1.43,0,0,1,1.14.47,2,2,0,0,1,.41,1.34v1.61A1.94,1.94,0,0,1,65.21,38a1.43,1.43,0,0,1-1.14.46,1.66,1.66,0,0,1-.8-.18,1.2,1.2,0,0,1-.5-.52A1.92,1.92,0,0,1,62.6,37l-.12,1.87a1.23,1.23,0,0,0,.12.26,2.07,2.07,0,0,0,.72.83,2.4,2.4,0,0,0,1.35.38,2.58,2.58,0,0,0,2.15-.94,4.05,4.05,0,0,0,.77-2.64V35.12A4.2,4.2,0,0,0,66.84,32.45Z"/></g></g></svg>