<svg xmlns="http://www.w3.org/2000/svg" viewBox="0 0 89.5 89.5"><defs><style>.cls-1{fill:#1d1d1b;}.cls-2{fill:#fff;}.cls-3{fill:#e25124;}</style></defs><g id="Layer_2" data-name="Layer 2"><g id="Layer_1-2" data-name="Layer 1"><circle class="cls-1" cx="44.75" cy="44.75" r="44.75"/><path class="cls-2" d="M44.75,11.62A33.18,33.18,0,0,1,76,33.79a1,1,0,0,0,.94.68h0a1,1,0,0,0,1-1.32,35.14,35.14,0,0,0-66.34,0,1,1,0,0,0,.95,1.32h0a1,1,0,0,0,.94-.68A33.21,33.21,0,0,1,44.75,11.62Zm0,66.27A33.22,33.22,0,0,1,13.47,55.71a1,1,0,0,0-.94-.67h0a1,1,0,0,0-.95,1.31,35.14,35.14,0,0,0,66.34,0A1,1,0,0,0,77,55h0a1,1,0,0,0-.94.67A33.19,33.19,0,0,1,44.75,77.89Z"/><path class="cls-3" d="M68.5,34.47H21A1,1,0,0,1,20.08,33a27.32,27.32,0,0,1,49.33,0A1,1,0,0,1,68.5,34.47Z"/><path class="cls-3" d="M68.51,55a1,1,0,0,1,.9,1.45,27.31,27.31,0,0,1-49.33,0A1,1,0,0,1,21,55Z"/><path class="cls-3" d="M16.64,48.45a2.24,2.24,0,0,1-3-.18,2.72,2.72,0,0,1-.6-1.86V43.1a2.74,2.74,0,0,1,.6-1.86,2.23,2.23,0,0,1,2.59-.45,2.28,2.28,0,0,1,.77.66,3,3,0,0,1,.47,1h2a5.12,5.12,0,0,0-.81-2.06,4,4,0,0,0-1.45-1.34,4.21,4.21,0,0,0-2-.47,4.55,4.55,0,0,0-2.28.55,3.63,3.63,0,0,0-1.48,1.55A5.15,5.15,0,0,0,11,43.1v3.31a5.11,5.11,0,0,0,.52,2.39A3.6,3.6,0,0,0,13,50.36a4.55,4.55,0,0,0,2.28.54,4.14,4.14,0,0,0,2-.47,3.92,3.92,0,0,0,1.45-1.33A5.26,5.26,0,0,0,19.51,47h-2A2.39,2.39,0,0,1,16.64,48.45Z"/><path class="cls-3" d="M32.49,38.73l-1.84,8.74-2.39-8.74H26.78l-2.39,8.74-1.85-8.74h-2l2.86,12.05h1.93l2.28-8.42,2.18,8.42h1.93l2.86-12.05Z"/><path class="cls-3" d="M36.19,38.73V50.78h2V38.73Zm8,6.82a2.7,2.7,0,0,0-1.8-.95A2.52,2.52,0,0,0,44.63,42a3.21,3.21,0,0,0-.91-2.41A3.81,3.81,0,0,0,41,38.73H37.19V40.6h3.65a2.06,2.06,0,0,1,1.34.38,1.41,1.41,0,0,1,.45,1.14,1.49,1.49,0,0,1-.43,1.15,1.77,1.77,0,0,1-1.24.39H37.19v1.86H41a1.88,1.88,0,0,1,1.38.46,1.7,1.7,0,0,1,.46,1.25v0a1.59,1.59,0,0,1-.5,1.21,2.31,2.31,0,0,1-1.55.44H37.19v1.88h4a3.83,3.83,0,0,0,2.66-.88,3.13,3.13,0,0,0,1-2.41v0A3,3,0,0,0,44.15,45.55Z"/><path class="cls-2" d="M52.3,48.45a2.08,2.08,0,0,1-1.37.49,2,2,0,0,1-1.63-.67,2.72,2.72,0,0,1-.6-1.86V43.1a2.74,2.74,0,0,1,.6-1.86,2.05,2.05,0,0,1,1.63-.68,2.09,2.09,0,0,1,1,.23,2.28,2.28,0,0,1,.77.66,3,3,0,0,1,.47,1h2a5.12,5.12,0,0,0-.81-2.06,4,4,0,0,0-1.45-1.34,4.22,4.22,0,0,0-2-.47,4.51,4.51,0,0,0-2.27.55,3.63,3.63,0,0,0-1.48,1.55,5.15,5.15,0,0,0-.52,2.4v3.31a5.11,5.11,0,0,0,.52,2.39,3.6,3.6,0,0,0,1.48,1.56,4.51,4.51,0,0,0,2.27.54,4.15,4.15,0,0,0,2-.47,3.92,3.92,0,0,0,1.45-1.33A5.26,5.26,0,0,0,55.17,47h-2A2.44,2.44,0,0,1,52.3,48.45Z"/><path class="cls-2" d="M59.82,48.9a.57.57,0,0,1-.44-.17.68.68,0,0,1-.16-.48V38.73h-2v9.79a2.41,2.41,0,0,0,.55,1.69,2,2,0,0,0,1.55.59h1.07V48.9Z"/><path class="cls-2" d="M67.13,47.47a1.56,1.56,0,0,1-.39,1.14,1.84,1.84,0,0,1-2.29,0,1.63,1.63,0,0,1-.4-1.19V42.18h-2v5.26A3.82,3.82,0,0,0,62.84,50a2.69,2.69,0,0,0,2.17.9,2.15,2.15,0,0,0,1.45-.48,2.76,2.76,0,0,0,.67-.83c0-.09.09-.18.12-.27Zm0-5.29v8.6h2v-8.6Z"/><path class="cls-2" d="M71.51,38.73V50.78h2V38.73ZM77.75,43a2.57,2.57,0,0,0-2.14-1,2.37,2.37,0,0,0-1.33.41,2.52,2.52,0,0,0-.79.86,2.28,2.28,0,0,0-.17.3l.17,1.78a1.86,1.86,0,0,1,.17-.83,1.2,1.2,0,0,1,.5-.52,1.7,1.7,0,0,1,.81-.18,1.43,1.43,0,0,1,1.14.47,2,2,0,0,1,.42,1.35V47.3a2,2,0,0,1-.42,1.32,1.43,1.43,0,0,1-1.14.46,1.7,1.7,0,0,1-.81-.18,1.2,1.2,0,0,1-.5-.52,1.93,1.93,0,0,1-.17-.84l-.12,1.88a1.59,1.59,0,0,0,.12.27,2.07,2.07,0,0,0,.72.83,2.46,2.46,0,0,0,1.36.38A2.59,2.59,0,0,0,77.73,50a4.11,4.11,0,0,0,.78-2.66V45.69A4.24,4.24,0,0,0,77.75,43Z"/></g></g></svg>